<svg width="140" height="24" viewBox="0 0 140 24" fill="none" xmlns="http://www.w3.org/2000/svg"><path d="M17.919 14.32a1.1 1.1 0 0 0-.32.97l.89 4.92a1.08 1.08 0 0 1-.45 1.08 1.1 1.1 0 0 1-1.17.08l-4.43-2.31a1.13 1.13 0 0 0-.5-.13h-.27a.812.812 0 0 0-.27.09l-4.43 2.32c-.22.11-.468.15-.71.11a1.112 1.112 0 0 1-.89-1.27l.89-4.92a1.119 1.119 0 0 0-.32-.98l-3.61-3.5a1.08 1.08 0 0 1-.27-1.13c.134-.396.476-.685.89-.75l4.97-.72c.378-.04.71-.27.88-.61l2.19-4.49a.997.997 0 0 1 .2-.27l.09-.07a.671.671 0 0 1 .16-.13l.11-.04.17-.07h.42c.377.04.708.264.88.6l2.22 4.47c.16.327.47.554.83.61l4.97.72c.42.06.77.35.91.75.13.401.017.841-.29 1.13l-3.74 3.54zm29 0a1.1 1.1 0 0 0-.32.97l.89 4.92a1.08 1.08 0 0 1-.45 1.08 1.1 1.1 0 0 1-1.17.08l-4.43-2.31a1.13 1.13 0 0 0-.5-.13h-.27a.812.812 0 0 0-.27.09l-4.43 2.32c-.22.11-.468.15-.71.11a1.112 1.112 0 0 1-.89-1.27l.89-4.92a1.119 1.119 0 0 0-.32-.98l-3.61-3.5a1.08 1.08 0 0 1-.27-1.13c.134-.396.476-.685.89-.75l4.97-.72c.378-.04.71-.27.88-.61l2.19-4.49c.052-.1.119-.192.2-.27l.09-.07a.671.671 0 0 1 .16-.13l.11-.04.17-.07h.42c.377.04.707.264.88.6l2.22 4.47c.16.327.47.554.83.61l4.97.72c.42.06.77.35.91.75.13.401.018.841-.29 1.13l-3.74 3.54zm28.999 0a1.1 1.1 0 0 0-.319.97l.89 4.92a1.08 1.08 0 0 1-.45 1.08 1.1 1.1 0 0 1-1.17.08l-4.43-2.31a1.13 1.13 0 0 0-.5-.13h-.27a.812.812 0 0 0-.27.09l-4.43 2.32c-.22.11-.468.15-.71.11a1.112 1.112 0 0 1-.89-1.27l.89-4.92a1.119 1.119 0 0 0-.32-.98l-3.61-3.5a1.08 1.08 0 0 1-.27-1.13c.135-.396.477-.685.89-.75l4.97-.72c.377-.04.71-.27.88-.61l2.19-4.49a.997.997 0 0 1 .2-.27l.09-.07a.671.671 0 0 1 .16-.13l.11-.04.17-.07h.42c.377.04.708.264.88.6l2.22 4.47c.16.327.47.554.83.61l4.97.72c.42.06.77.35.91.75.13.401.017.841-.29 1.13l-3.74 3.54zm29 0a1.103 1.103 0 0 0-.319.97l.89 4.92c.075.417-.101.84-.451 1.08a1.1 1.1 0 0 1-1.17.08l-4.428-2.31a1.13 1.13 0 0 0-.5-.13h-.272a.812.812 0 0 0-.27.09l-4.43 2.32c-.219.11-.467.15-.71.11a1.112 1.112 0 0 1-.89-1.27l.89-4.92a1.119 1.119 0 0 0-.319-.98l-3.61-3.5a1.08 1.08 0 0 1-.27-1.13c.135-.396.477-.685.89-.75l4.97-.72c.377-.04.71-.27.88-.61l2.19-4.49a.997.997 0 0 1 .2-.27l.09-.07a.671.671 0 0 1 .16-.13l.11-.04.17-.07h.42c.377.04.708.264.88.6l2.219 4.47c.16.327.472.554.831.61l4.969.72c.42.06.771.35.91.75.132.401.019.841-.289 1.13l-3.741 3.54zm29 0a1.1 1.1 0 0 0-.319.97l.889 4.92a1.08 1.08 0 0 1-.45 1.08 1.1 1.1 0 0 1-1.17.08l-4.429-2.31a1.13 1.13 0 0 0-.5-.13h-.271a.812.812 0 0 0-.27.09l-4.43 2.32c-.219.11-.467.15-.71.11a1.112 1.112 0 0 1-.89-1.27l.89-4.92a1.119 1.119 0 0 0-.319-.98l-3.611-3.5a1.08 1.08 0 0 1-.269-1.13c.134-.396.476-.685.889-.75l4.97-.72c.378-.04.71-.27.88-.61l2.19-4.49c.052-.1.119-.192.2-.27l.09-.07a.671.671 0 0 1 .161-.13l.109-.04.17-.07h.421c.376.04.707.264.88.6l2.219 4.47c.16.327.471.554.83.61l4.97.72c.42.06.771.35.91.75.131.401.018.841-.29 1.13l-3.74 3.54z" fill="#FFCF19"/></svg>